<svg width="49" height="39" viewBox="0 0 49 39" fill="none" xmlns="http://www.w3.org/2000/svg">
    <path d="M6.97057 38.299H42.2258C46.4051 38.299 48.6 36.1361 48.6 31.9921V11.6138C48.6 7.46996 46.4051 5.32288 42.2258 5.32288H37.0247C35.5011 5.32288 35.007 5.04711 34.0736 4.06562L32.5376 2.4017C31.528 1.34058 30.5097 0.799927 28.5338 0.799927H20.5545C18.5788 0.799927 17.5605 1.34058 16.5509 2.4017L15.0113 4.06562C14.078 5.03118 13.5715 5.32288 12.0602 5.32288H6.97057C2.77894 5.32288 0.600006 7.46996 0.600006 11.6138V31.9921C0.600006 36.1361 2.77894 38.299 6.97057 38.299ZM24.5982 32.2345C18.7803 32.2345 14.1067 27.5767 14.1067 21.72C14.1067 15.8793 18.7803 11.225 24.5982 11.225C30.423 11.225 35.0774 15.8793 35.0774 21.72C35.0774 27.5767 30.4071 32.2345 24.5982 32.2345ZM24.5982 28.7652C28.4893 28.7652 31.624 25.6395 31.624 21.72C31.624 17.8131 28.4893 14.6783 24.5982 14.6783C20.7142 14.6783 17.56 17.8131 17.56 21.72C17.56 25.6395 20.7302 28.7652 24.5982 28.7652ZM36.333 14.5839C36.333 13.2144 37.5332 12.0143 38.9381 12.0143C40.3235 12.0143 41.5043 13.2144 41.5043 14.5839C41.5043 16.0082 40.327 17.1466 38.9381 17.166C37.5262 17.1695 36.333 16.0241 36.333 14.5839Z"
          fill="#007AFF"/>
</svg>
