<svg width="196" height="196" viewBox="0 0 196 196" fill="none" xmlns="http://www.w3.org/2000/svg">
<path d="M16.2942 179.956C-6.11078 157.707 -4.04753 129.998 21.4677 104.332L51.296 74.8327C48.5855 83.8492 49.0598 95.0555 52.0922 101.582L35.8126 117.511C18.3778 134.594 16.4839 152.555 30.131 165.883C43.6695 179.243 61.3516 177.15 78.57 160.176L102.147 136.508C119.751 119.225 121.922 101.216 108.493 87.7189C104.441 83.8087 98.2513 80.6265 91.1117 79.4883C93.64 73.5168 99.8125 66.4271 104.999 62.7064C109.79 63.9185 116.614 68.0725 122.159 74.0613C144.826 96.1894 142.685 124.052 116.491 150.134L91.7766 174.371C66.0914 200.084 38.313 201.959 16.2942 179.956ZM179.794 15.8577C202.199 38.1073 200.136 65.8481 174.481 91.6219L144.792 120.981C147.503 112.135 147.027 100.79 143.996 94.4011L160.276 78.3341C177.711 61.2202 179.466 43.2905 165.957 29.9617C152.418 16.572 134.736 18.6642 117.487 35.6697L93.9406 59.3074C76.1979 76.7293 74.1654 94.5976 87.5643 108.265C91.648 112.037 97.8379 115.219 104.976 116.496C102.448 122.437 96.1364 129.557 90.9498 133.278C86.298 132.066 79.4735 127.743 73.9283 121.923C51.2621 99.7948 53.4033 71.7632 79.5964 45.85L104.172 21.4743C129.997 -4.23867 157.636 -6.11418 179.794 15.8577Z" fill="white"/>
<path d="M16.2942 179.956C-6.11078 157.707 -4.04753 129.998 21.4677 104.332L51.296 74.8327C48.5855 83.8492 49.0598 95.0555 52.0922 101.582L35.8126 117.511C18.3778 134.594 16.4839 152.555 30.131 165.883C43.6695 179.243 61.3516 177.15 78.57 160.176L102.147 136.508C119.751 119.225 121.922 101.216 108.493 87.7189C104.441 83.8087 98.2513 80.6265 91.1117 79.4883C93.64 73.5168 99.8125 66.4271 104.999 62.7064C109.79 63.9185 116.614 68.0725 122.159 74.0613C144.826 96.1894 142.685 124.052 116.491 150.134L91.7766 174.371C66.0914 200.084 38.313 201.959 16.2942 179.956ZM179.794 15.8577C202.199 38.1073 200.136 65.8481 174.481 91.6219L144.792 120.981C147.503 112.135 147.027 100.79 143.996 94.4011L160.276 78.3341C177.711 61.2202 179.466 43.2905 165.957 29.9617C152.418 16.572 134.736 18.6642 117.487 35.6697L93.9406 59.3074C76.1979 76.7293 74.1654 94.5976 87.5643 108.265C91.648 112.037 97.8379 115.219 104.976 116.496C102.448 122.437 96.1364 129.557 90.9498 133.278C86.298 132.066 79.4735 127.743 73.9283 121.923C51.2621 99.7948 53.4033 71.7632 79.5964 45.85L104.172 21.4743C129.997 -4.23867 157.636 -6.11418 179.794 15.8577Z" fill="url(#paint0_radial_6717_25868)"/>
<path d="M16.2942 179.956C-6.11078 157.707 -4.04753 129.998 21.4677 104.332L51.296 74.8327C48.5855 83.8492 49.0598 95.0555 52.0922 101.582L35.8126 117.511C18.3778 134.594 16.4839 152.555 30.131 165.883C43.6695 179.243 61.3516 177.15 78.57 160.176L102.147 136.508C119.751 119.225 121.922 101.216 108.493 87.7189C104.441 83.8087 98.2513 80.6265 91.1117 79.4883C93.64 73.5168 99.8125 66.4271 104.999 62.7064C109.79 63.9185 116.614 68.0725 122.159 74.0613C144.826 96.1894 142.685 124.052 116.491 150.134L91.7766 174.371C66.0914 200.084 38.313 201.959 16.2942 179.956ZM179.794 15.8577C202.199 38.1073 200.136 65.8481 174.481 91.6219L144.792 120.981C147.503 112.135 147.027 100.79 143.996 94.4011L160.276 78.3341C177.711 61.2202 179.466 43.2905 165.957 29.9617C152.418 16.572 134.736 18.6642 117.487 35.6697L93.9406 59.3074C76.1979 76.7293 74.1654 94.5976 87.5643 108.265C91.648 112.037 97.8379 115.219 104.976 116.496C102.448 122.437 96.1364 129.557 90.9498 133.278C86.298 132.066 79.4735 127.743 73.9283 121.923C51.2621 99.7948 53.4033 71.7632 79.5964 45.85L104.172 21.4743C129.997 -4.23867 157.636 -6.11418 179.794 15.8577Z" fill="url(#paint1_radial_6717_25868)"/>
<defs>
<radialGradient id="paint0_radial_6717_25868" cx="0" cy="0" r="1" gradientUnits="userSpaceOnUse" gradientTransform="translate(98.0372 185.143) rotate(-120.131) scale(193.688 193.247)">
<stop stop-color="#D94AFB"/>
<stop offset="1" stop-color="#8F35EF"/>
</radialGradient>
<radialGradient id="paint1_radial_6717_25868" cx="0" cy="0" r="1" gradientUnits="userSpaceOnUse" gradientTransform="translate(195.266 21.4541) rotate(173.264) scale(160.255 158.911)">
<stop stop-color="#C43FB2"/>
<stop offset="1" stop-color="#C43FB2" stop-opacity="0"/>
</radialGradient>
</defs>
</svg>
