<svg width="22" height="12" viewBox="0 0 22 12" fill="none" xmlns="http://www.w3.org/2000/svg">
    <path fill-rule="evenodd" clip-rule="evenodd"
          d="M0.0999756 1.0001C0.0999756 0.503041 0.502919 0.100098 0.999976 0.100098H21C21.497 0.100098 21.9 0.503041 21.9 1.0001C21.9 1.49715 21.497 1.9001 21 1.9001H0.999976C0.502919 1.9001 0.0999756 1.49715 0.0999756 1.0001ZM0.0999756 6.0001C0.0999756 5.50304 0.502919 5.1001 0.999976 5.1001H21C21.497 5.1001 21.9 5.50304 21.9 6.0001C21.9 6.49715 21.497 6.9001 21 6.9001H0.999976C0.502919 6.9001 0.0999756 6.49715 0.0999756 6.0001ZM0.0999756 11.0001C0.0999756 10.503 0.502919 10.1001 0.999976 10.1001H21C21.497 10.1001 21.9 10.503 21.9 11.0001C21.9 11.4972 21.497 11.9001 21 11.9001H0.999976C0.502919 11.9001 0.0999756 11.4972 0.0999756 11.0001Z"
          fill="#707579"/>
</svg>
